<?xml version="1.0" standalone="no"?>
<!DOCTYPE svg PUBLIC "-//W3C//DTD SVG 20010904//EN"
 "http://www.w3.org/TR/2001/REC-SVG-20010904/DTD/svg10.dtd">
<svg version="1.0" xmlns="http://www.w3.org/2000/svg"
 width="763.000000pt" height="208.000000pt" viewBox="0 0 763.000000 208.000000"
 preserveAspectRatio="xMidYMid meet">
<metadata>
Created by potrace 1.16, written by Peter Selinger 2001-2019
</metadata>
<g transform="translate(0.000000,208.000000) scale(0.100000,-0.100000)"
fill="#000000" stroke="none">
<path d="M0 1040 l0 -1040 3815 0 3815 0 0 1040 0 1040 -3815 0 -3815 0 0
-1040z m3007 683 c167 -76 303 -141 303 -144 0 -3 -28 -43 -62 -89 l-63 -84
-270 -42 c-148 -24 -353 -56 -455 -72 l-185 -29 -82 59 c-46 33 -83 64 -83 67
0 4 101 111 224 237 177 181 227 226 237 217 10 -10 -31 -57 -196 -228 -114
-118 -206 -215 -204 -215 2 0 146 23 319 50 173 28 405 64 515 81 110 16 208
33 218 37 12 5 -40 33 -180 96 -380 172 -386 175 -372 192 7 8 17 13 23 10 6
-3 147 -67 313 -143z m358 -375 c19 -117 54 -346 80 -508 25 -162 52 -333 60
-379 8 -46 15 -88 15 -93 0 -9 -84 46 -143 94 -26 22 -30 34 -62 233 -71 445
-105 661 -107 685 -1 17 18 52 58 107 32 44 61 80 62 78 2 -2 19 -99 37 -217z
m-1103 -97 c4 -3 20 -92 37 -196 16 -105 48 -308 71 -453 l41 -262 -22 -33
c-13 -17 -41 -57 -63 -87 l-40 -55 -22 140 c-20 127 -72 458 -139 878 -14 87
-25 165 -25 173 0 11 109 -60 162 -105z m1858 -8 c30 -8 67 -21 82 -29 81 -42
141 -129 154 -223 l7 -51 -110 0 -110 0 -6 30 c-17 81 -69 114 -179 114 -63 1
-82 -3 -105 -20 -58 -43 -67 -118 -17 -151 13 -8 90 -33 172 -55 203 -54 249
-74 304 -129 61 -61 78 -104 78 -193 0 -205 -178 -328 -450 -313 -226 13 -365
122 -386 302 l-7 55 112 0 c107 0 111 -1 111 -22 0 -12 9 -41 21 -64 28 -60
98 -94 189 -94 125 0 190 39 190 116 0 70 -45 97 -250 150 -137 35 -215 71
-267 123 -50 50 -67 95 -67 176 0 111 59 200 169 254 101 50 238 59 365 24z
m-3320 -34 c98 -47 148 -113 170 -227 10 -49 10 -75 0 -124 -22 -114 -72 -181
-170 -227 -51 -24 -67 -26 -222 -29 l-168 -4 -2 -176 -3 -177 -112 -3 -113 -3
0 501 0 501 283 -3 c281 -3 282 -3 337 -29z m468 -51 l-3 -83 -100 0 -100 0
-3 83 -3 82 106 0 106 0 -3 -82z m3402 -100 l0 -182 38 36 c61 59 96 72 187
71 92 0 118 -9 170 -54 74 -65 79 -88 83 -407 l4 -283 -104 3 -103 3 -5 250
c-5 261 -8 279 -52 309 -28 20 -110 21 -147 1 -58 -30 -66 -65 -69 -327 l-4
-238 -99 0 -99 0 0 500 0 500 100 0 100 0 0 -182z m2358 -78 l-3 -260 125 125
125 125 113 0 c61 0 112 -4 112 -9 0 -5 -59 -66 -132 -135 l-131 -126 135
-203 c74 -111 143 -214 152 -229 l18 -28 -124 0 -125 0 -98 160 -98 161 -33
-32 -33 -32 -3 -126 -3 -126 -102 -3 -103 -3 0 501 0 500 105 0 106 0 -3 -260z
m-5220 1 c141 -21 246 -114 265 -233 l6 -38 -99 0 -99 0 -20 45 c-23 52 -63
75 -129 75 -149 0 -220 -273 -105 -401 75 -83 213 -54 244 52 l12 39 99 0 99
0 -7 -37 c-25 -138 -133 -235 -282 -253 -174 -22 -315 47 -384 188 -29 59 -33
78 -36 163 -8 218 93 361 281 398 58 12 82 12 155 2z m3965 -17 c54 -19 103
-57 124 -97 15 -27 18 -73 23 -312 3 -154 9 -288 14 -298 7 -16 0 -17 -97 -17
l-105 0 -7 30 -6 29 -53 -29 c-60 -34 -164 -52 -242 -41 -137 19 -214 130
-184 265 24 106 86 145 280 175 144 22 178 35 187 69 16 66 -45 116 -130 109
-58 -5 -99 -33 -111 -76 l-9 -31 -98 0 -99 0 0 29 c0 98 106 190 245 212 67
10 217 1 268 -17z m761 -5 c29 -10 71 -35 93 -54 46 -39 93 -124 93 -167 l0
-28 -97 0 -98 0 -17 40 c-20 48 -69 80 -123 80 -62 0 -106 -29 -138 -91 -26
-50 -28 -61 -25 -144 5 -141 58 -215 152 -215 76 0 126 41 150 123 5 15 19 17
105 17 l99 0 -9 -41 c-32 -140 -133 -230 -280 -248 -182 -23 -320 47 -393 199
-29 60 -31 72 -30 170 0 84 5 116 23 162 41 106 146 195 255 218 59 13 179 2
240 -21z m-5264 -354 l0 -365 -105 0 -105 0 0 365 0 365 105 0 105 0 0 -365z
m2152 -196 c42 -30 77 -57 78 -60 0 -3 -62 -16 -137 -28 -76 -12 -208 -33
-293 -46 -85 -14 -252 -40 -370 -59 -332 -53 -379 -60 -386 -53 -7 7 102 156
119 162 7 3 86 16 177 31 91 14 287 45 435 69 149 24 277 42 285 41 8 -2 50
-27 92 -57z"/>
<path d="M410 924 l0 -149 132 5 c75 3 142 11 154 17 38 22 57 63 57 123 0
109 -43 137 -222 147 l-121 6 0 -149z"/>
<path d="M5690 580 c-8 -5 -46 -14 -85 -20 -82 -13 -142 -37 -156 -61 -5 -10
-9 -33 -9 -52 0 -46 35 -78 93 -84 117 -13 189 67 175 194 -2 26 -6 31 -18 23z"/>
</g>
</svg>
